<?xml version="1.0" encoding="utf-8"?>
<!DOCTYPE svg PUBLIC "-//W3C//DTD SVG 1.1//EN" "http://www.w3.org/Graphics/SVG/1.1/DTD/svg11.dtd">
<svg version="1.1"  xmlns="http://www.w3.org/2000/svg"  x="0px" y="0px"
	 width="86.492px" height="76.729px" viewBox="0 0 86.492 76.729">
<g>
	<path fill="#858A8E" d="M20.703,23.669c-0.677-0.449-1.459-0.671-2.344-0.671c-0.948,0-1.834,0.262-2.656,0.782
		c-0.823,0.521-1.508,1.286-2.057,2.291c-0.259-0.753-0.565-1.334-0.918-1.736c-0.354-0.403-0.811-0.729-1.369-0.972
		c-0.559-0.244-1.147-0.365-1.769-0.365c-0.919,0-1.797,0.253-2.63,0.752c-0.604,0.379-1.195,0.976-1.769,1.793v-2.215
		c0-0.456-0.368-0.824-0.824-0.824s-0.825,0.368-0.825,0.824v12.318c0,0.456,0.369,0.825,0.825,0.825s0.824-0.369,0.824-0.825
		v-4.935c0-1.603,0.159-2.791,0.478-3.569c0.318-0.775,0.809-1.395,1.471-1.854C7.804,24.83,8.518,24.6,9.279,24.6
		c0.66,0,1.23,0.167,1.708,0.501c0.478,0.333,0.815,0.778,1.007,1.331c0.192,0.554,0.289,1.604,0.289,3.15v6.064
		c0,0.456,0.368,0.825,0.824,0.825s0.824-0.369,0.824-0.825v-4.521c0-1.837,0.153-3.149,0.457-3.935
		c0.307-0.786,0.79-1.414,1.452-1.885c0.661-0.472,1.389-0.707,2.188-0.707c0.658,0,1.223,0.157,1.696,0.472
		c0.474,0.314,0.808,0.729,1.004,1.242c0.196,0.516,0.293,1.457,0.293,2.833v6.501h0.035c0,0.456,0.369,0.825,0.824,0.825
		c0.456,0,0.825-0.369,0.825-0.825v-6.501c0-1.602-0.165-2.804-0.493-3.604C21.884,24.741,21.38,24.118,20.703,23.669z"/>
	<path fill="#858A8E" d="M31.04,22.998c-1.982,0-3.623,0.719-4.92,2.155c-1.179,1.304-1.769,2.841-1.769,4.616
		c0,1.79,0.623,3.354,1.87,4.693c1.246,1.339,2.854,2.009,4.819,2.009c1.959,0,3.563-0.67,4.808-2.009
		c1.247-1.339,1.871-2.903,1.871-4.693c0-1.781-0.59-3.325-1.769-4.629C34.651,23.712,33.014,22.998,31.04,22.998z M35.372,32.397
		c-0.45,0.8-1.055,1.419-1.821,1.855c-0.763,0.435-1.602,0.651-2.517,0.651c-0.914,0-1.753-0.218-2.516-0.651
		c-0.766-0.438-1.372-1.057-1.821-1.855c-0.451-0.801-0.673-1.665-0.673-2.591c0-1.438,0.492-2.663,1.477-3.676
		s2.164-1.521,3.534-1.521c1.363,0,2.54,0.508,3.528,1.521c0.99,1.013,1.484,2.237,1.484,3.676
		C36.046,30.732,35.821,31.597,35.372,32.397z"/>
	<path fill="#858A8E" d="M48.566,23.729c-0.741-0.485-1.59-0.729-2.549-0.729c-0.942,0-1.814,0.219-2.615,0.653
		c-0.801,0.436-1.531,1.094-2.191,1.974v-2.297c0-0.456-0.369-0.824-0.824-0.824c-0.457,0-0.824,0.368-0.824,0.824v12.318
		c0,0.456,0.368,0.825,0.824,0.825c0.456,0,0.824-0.369,0.824-0.825v-4.204c0-1.688,0.077-2.851,0.236-3.485
		c0.251-0.977,0.771-1.79,1.56-2.45c0.79-0.66,1.684-0.989,2.68-0.989c0.871,0,1.578,0.213,2.121,0.643
		c0.541,0.428,0.908,1.065,1.099,1.914c0.122,0.493,0.185,1.479,0.185,2.955v5.618c0,0.456,0.368,0.825,0.824,0.825
		s0.825-0.369,0.825-0.825v-6.1c0-1.744-0.179-3.028-0.531-3.854C49.857,24.871,49.309,24.215,48.566,23.729z"/>
	<path fill="#858A8E" d="M53.639,18.051c-0.367,0-0.685,0.134-0.951,0.4c-0.265,0.268-0.396,0.59-0.396,0.966
		c0,0.368,0.133,0.687,0.396,0.955c0.268,0.266,0.584,0.398,0.951,0.398c0.375,0,0.695-0.134,0.963-0.398
		C54.866,20.104,55,19.785,55,19.417c0-0.376-0.134-0.698-0.396-0.966C54.334,18.185,54.014,18.051,53.639,18.051z"/>
	<path fill="#858A8E" d="M69.725,22.998c-1.982,0-3.623,0.719-4.922,2.155c-1.179,1.304-1.77,2.841-1.77,4.616
		c0,1.79,0.623,3.354,1.871,4.693c1.246,1.339,2.854,2.009,4.82,2.009c1.957,0,3.561-0.67,4.807-2.009s1.871-2.903,1.871-4.693
		c0-1.781-0.59-3.325-1.771-4.629C73.334,23.712,71.698,22.998,69.725,22.998z M74.055,32.397c-0.449,0.8-1.054,1.419-1.82,1.855
		c-0.762,0.435-1.604,0.651-2.518,0.651s-1.753-0.218-2.516-0.651c-0.766-0.438-1.371-1.057-1.821-1.855
		c-0.45-0.801-0.675-1.665-0.675-2.591c0-1.438,0.494-2.663,1.479-3.676c0.985-1.013,2.164-1.521,3.533-1.521
		c1.365,0,2.54,0.508,3.529,1.521c0.988,1.013,1.484,2.237,1.484,3.676C74.73,30.732,74.504,31.597,74.055,32.397z"/>
	<path fill="#858A8E" d="M53.645,23.328c-0.455,0-0.826,0.366-0.826,0.823v11.495c0,0.456,0.371,0.825,0.826,0.825
		c0.457,0,0.824-0.369,0.824-0.825V24.152C54.469,23.695,54.102,23.328,53.645,23.328z"/>
	<path fill="#858A8E" d="M61.867,23.328h-2.092v-3.295c0.129,0.053,0.254,0.107,0.393,0.156c0.876,0.312,1.864,0.465,2.962,0.465
		c1.5,0,2.783-0.315,3.853-0.952c1.067-0.637,1.817-1.543,2.25-2.722c0.313-0.831,0.471-2.147,0.471-3.945V2.823
		C69.702,2.369,69.333,2,68.877,2s-0.824,0.369-0.824,0.823v2.228c-0.771-0.911-1.57-1.564-2.398-1.961
		c-0.829-0.398-1.725-0.596-2.684-0.596c-1.154,0-2.254,0.299-3.295,0.895c-1.043,0.598-1.857,1.408-2.445,2.433
		c-0.59,1.025-0.885,2.132-0.885,3.316s0.281,2.272,0.848,3.263c0.566,0.989,1.367,1.776,2.406,2.361
		c1.037,0.586,2.146,0.878,3.324,0.878c1.006,0,1.957-0.211,2.854-0.631c0.896-0.419,1.654-1.022,2.275-1.808v0.658
		c0,1.411-0.164,2.438-0.496,3.07c-0.33,0.633-0.881,1.159-1.656,1.58c-0.774,0.418-1.725,0.626-2.848,0.626
		c-1.141,0-2.096-0.202-2.865-0.612c-0.235-0.125-0.455-0.276-0.664-0.441c-0.041-0.041-0.088-0.075-0.135-0.105
		c-0.004-0.001-0.006-0.004-0.008-0.005c0,0,0,0-0.001,0c-0.125-0.076-0.271-0.121-0.429-0.121c-0.455,0-0.824,0.368-0.824,0.823
		v4.654h-1.781c-0.395,0-0.715,0.318-0.715,0.712c0,0.395,0.32,0.713,0.715,0.713h1.781v10.895c0,0.456,0.369,0.825,0.824,0.825
		c0.456,0,0.824-0.369,0.824-0.825V24.753h2.091c0.394,0,0.714-0.318,0.714-0.713C62.581,23.647,62.26,23.328,61.867,23.328z
		 M66.751,12.719c-0.924,0.908-2.142,1.365-3.657,1.365c-1.498,0-2.721-0.46-3.662-1.377c-0.943-0.919-1.414-2.082-1.414-3.487
		c0-0.927,0.228-1.786,0.684-2.585c0.456-0.797,1.083-1.421,1.886-1.873c0.8-0.449,1.668-0.677,2.603-0.677
		c0.896,0,1.73,0.219,2.51,0.658c0.775,0.44,1.378,1.038,1.801,1.798c0.425,0.757,0.637,1.619,0.637,2.585
		C68.135,10.61,67.675,11.807,66.751,12.719z"/>
	<path fill="#858A8E" d="M84.1,23.435c-0.518-0.292-1.004-0.437-1.461-0.437c-0.604,0-1.184,0.183-1.742,0.546
		c-0.559,0.368-1.088,0.917-1.59,1.657v-1.873c0-0.467-0.377-0.843-0.843-0.843c-0.467,0-0.843,0.376-0.843,0.843v12.318
		c0,0.465,0.377,0.843,0.843,0.843s0.843-0.378,0.843-0.843v-3.839c0-2.223,0.102-3.699,0.308-4.429
		c0.266-0.952,0.653-1.651,1.165-2.104c0.511-0.45,1.041-0.678,1.591-0.678c0.228,0,0.507,0.074,0.838,0.213
		c0.01,0.006,0.015,0.019,0.024,0.022c0.39,0.24,0.896,0.122,1.136-0.268C84.609,24.182,84.489,23.673,84.1,23.435z"/>
	<path fill="#858A8E" d="M8.672,15.969c0.943,0,1.788-0.143,2.535-0.43c0.746-0.285,1.419-0.706,2.017-1.254
		c0.597-0.552,1.124-1.272,1.579-2.168l-0.009-0.006c0.053-0.104,0.089-0.219,0.089-0.345c0-0.432-0.348-0.779-0.779-0.779
		c-0.293,0-0.54,0.169-0.672,0.409l-0.018-0.011c-0.503,0.837-0.97,1.442-1.404,1.819c-0.433,0.376-0.957,0.677-1.574,0.902
		c-0.617,0.229-1.252,0.34-1.904,0.34c-1.352,0-2.489-0.476-3.407-1.429c-0.922-0.95-1.398-2.171-1.428-3.659h11.531
		c-0.016-1.751-0.488-3.212-1.414-4.381c-1.306-1.657-3.049-2.485-5.234-2.485c-2.121,0-3.815,0.81-5.082,2.427
		C2.5,6.193,2,7.642,2,9.267c0,1.729,0.588,3.278,1.77,4.646C4.947,15.284,6.582,15.969,8.672,15.969z M5.359,5.286
		c0.904-0.81,1.985-1.215,3.243-1.215c0.761,0,1.489,0.163,2.181,0.483c0.692,0.323,1.247,0.746,1.669,1.272
		c0.42,0.526,0.74,1.229,0.961,2.106H3.861C4.199,6.759,4.698,5.875,5.359,5.286z"/>
	<path fill="#858A8E" d="M19.391,15.969c0.456,0,0.825-0.369,0.825-0.823V10.94c0-1.688,0.078-2.851,0.236-3.486
		c0.25-0.977,0.77-1.79,1.559-2.45c0.789-0.66,1.684-0.989,2.681-0.989c0.872,0,1.578,0.214,2.12,0.643s0.909,1.066,1.1,1.913
		c0.123,0.495,0.184,1.482,0.184,2.957v5.619c0,0.454,0.368,0.823,0.824,0.823c0.457,0,0.825-0.369,0.825-0.823V9.044
		c0-1.744-0.177-3.027-0.53-3.854c-0.355-0.822-0.902-1.48-1.645-1.966c-0.742-0.486-1.591-0.729-2.549-0.729
		c-0.941,0-1.813,0.219-2.614,0.653c-0.801,0.436-1.531,1.093-2.191,1.974V2.823C20.216,2.369,19.847,2,19.391,2
		c-0.455,0-0.824,0.369-0.824,0.823v12.321C18.567,15.6,18.936,15.969,19.391,15.969z"/>
	<path fill="#858A8E" d="M39.591,15.969c0.942,0,1.789-0.143,2.535-0.43c0.746-0.285,1.418-0.706,2.015-1.254
		c0.586-0.541,1.103-1.25,1.551-2.12c0.072-0.118,0.123-0.249,0.123-0.397c0-0.432-0.349-0.779-0.778-0.779
		c-0.298,0-0.546,0.171-0.677,0.414l-0.029-0.016c-0.501,0.837-0.97,1.442-1.402,1.819c-0.433,0.376-0.958,0.677-1.574,0.902
		c-0.617,0.229-1.252,0.34-1.904,0.34c-1.353,0-2.488-0.476-3.409-1.429c-0.919-0.95-1.396-2.171-1.427-3.659h11.531
		C46.129,7.61,45.658,6.149,44.73,4.98c-1.305-1.657-3.05-2.485-5.233-2.485c-2.123,0-3.816,0.81-5.082,2.427
		c-0.999,1.271-1.499,2.721-1.499,4.346c0,1.729,0.591,3.278,1.77,4.646C35.866,15.284,37.499,15.969,39.591,15.969z M36.277,5.286
		c0.904-0.81,1.985-1.215,3.244-1.215c0.761,0,1.488,0.163,2.181,0.483c0.691,0.323,1.248,0.746,1.668,1.272
		c0.422,0.526,0.741,1.229,0.961,2.106h-9.552C35.118,6.759,35.617,5.875,36.277,5.286z"/>
	<path fill="#858A8E" d="M84.032,3.337c0.092-0.366-0.076-0.758-0.435-0.917c-0.402-0.179-0.873,0.003-1.053,0.402
		c0,0.001,0,0.001,0,0.003l-4.275,9.866l-4.404-9.868c-0.18-0.4-0.649-0.58-1.051-0.4c-0.403,0.18-0.584,0.647-0.403,1.051
		l4.973,11.194l-2.182,5.01c-0.181,0.401,0.002,0.873,0.401,1.051c0.402,0.181,0.871-0.001,1.054-0.4L84.07,3.35L84.032,3.337z"/>
	<path fill="#858A8E" d="M55.314,2.968l0.023-0.037c-0.518-0.291-1.006-0.437-1.461-0.437c-0.605,0-1.186,0.183-1.742,0.548
		c-0.559,0.366-1.089,0.917-1.59,1.654V2.823h-0.018C50.527,2.369,50.16,2,49.704,2c-0.455,0-0.824,0.369-0.824,0.823h-0.019v12.321
		h0.019c0,0.454,0.369,0.823,0.824,0.823c0.456,0,0.823-0.369,0.823-0.823h0.019v-3.841c0-2.222,0.101-3.699,0.306-4.428
		c0.268-0.951,0.655-1.651,1.166-2.104c0.512-0.452,1.041-0.678,1.59-0.678c0.209,0,0.467,0.068,0.762,0.185
		c0.141,0.115,0.313,0.191,0.51,0.191c0.456,0,0.824-0.368,0.824-0.824C55.702,3.356,55.543,3.113,55.314,2.968z"/>
</g>
<g>
	<path fill="#CCFF00" d="M45.948,36.544c0.147-1.683,1.645-2.937,3.325-2.79l0,0c1.683,0.146,2.938,1.644,2.791,3.327l-2.612,29.877
		c-0.147,1.682-1.646,2.937-3.326,2.791l0,0c-1.683-0.148-2.938-1.645-2.791-3.326L45.948,36.544z"/>
	<path fill="#CCFF00" d="M37.041,41.513c0.147-1.682,1.643-2.938,3.325-2.791l0,0c1.683,0.148,2.938,1.645,2.791,3.326
		l-2.615,29.879c-0.146,1.682-1.642,2.936-3.324,2.79l0,0c-1.682-0.148-2.938-1.645-2.791-3.327L37.041,41.513z"/>
	<path fill="#CCFF00" d="M16.436,56.927c-0.147,1.682-1.643,2.937-3.326,2.789l0,0c-1.682-0.146-2.937-1.643-2.79-3.324l0,0
		c0.147-1.683,1.643-2.938,3.325-2.791l0,0C15.328,53.748,16.582,55.244,16.436,56.927L16.436,56.927z"/>
	<path fill="#CCFF00" d="M25.061,55.194c-0.147,1.683-1.645,2.938-3.326,2.789l0,0c-1.681-0.146-2.938-1.644-2.79-3.323l0.294-3.373
		c0.148-1.682,1.645-2.937,3.326-2.79l0,0c1.682,0.146,2.938,1.644,2.79,3.325L25.061,55.194z"/>
	<path fill="#CCFF00" d="M33.659,53.766c-0.147,1.682-1.644,2.938-3.326,2.791l0,0c-1.682-0.146-2.938-1.644-2.791-3.326l0.591-6.75
		c0.147-1.681,1.644-2.937,3.325-2.789l0,0c1.682,0.146,2.937,1.644,2.791,3.324L33.659,53.766z"/>
	<path fill="#CCFF00" d="M70.057,51.544c0.146-1.683,1.644-2.938,3.324-2.789l0,0c1.684,0.146,2.938,1.642,2.791,3.324l0,0
		c-0.146,1.683-1.645,2.938-3.326,2.791l0,0C71.165,54.723,69.909,53.227,70.057,51.544L70.057,51.544z"/>
	<path fill="#CCFF00" d="M61.432,53.276c0.146-1.682,1.644-2.937,3.324-2.789l0,0c1.684,0.146,2.938,1.645,2.791,3.324l-0.296,3.373
		c-0.146,1.681-1.644,2.938-3.324,2.79l0,0c-1.683-0.146-2.937-1.644-2.79-3.326L61.432,53.276z"/>
	<path fill="#CCFF00" d="M52.834,54.705c0.146-1.683,1.643-2.938,3.324-2.791l0,0c1.682,0.146,2.936,1.644,2.79,3.325l-0.591,6.75
		c-0.146,1.682-1.644,2.938-3.325,2.789l0,0c-1.683-0.146-2.938-1.643-2.79-3.323L52.834,54.705z"/>
</g>
</svg>