<?xml version="1.0" encoding="utf-8"?>
<!-- Generator: Adobe Illustrator 14.0.0, SVG Export Plug-In . SVG Version: 6.00 Build 43363)  -->
<!DOCTYPE svg PUBLIC "-//W3C//DTD SVG 1.1//EN" "http://www.w3.org/Graphics/SVG/1.1/DTD/svg11.dtd">
<svg version="1.1" id="Layer_1" xmlns="http://www.w3.org/2000/svg" xmlns:xlink="http://www.w3.org/1999/xlink" x="0px" y="0px"
	 width="30px" height="30px" viewBox="0 0 30 30" enable-background="new 0 0 30 30" xml:space="preserve">
<path d="M15.707,15l3.625-3.624c0.194-0.195,0.194-0.512,0-0.707c-0.195-0.195-0.513-0.195-0.707,0L15,14.293l-3.624-3.625
	c-0.195-0.195-0.512-0.195-0.707,0s-0.195,0.512,0,0.707L14.293,15l-3.625,3.625c-0.195,0.194-0.195,0.512,0,0.707
	c0.098,0.096,0.226,0.146,0.354,0.146s0.256-0.05,0.354-0.146L15,15.707l3.625,3.625c0.098,0.098,0.226,0.146,0.354,0.146
	s0.254-0.05,0.352-0.146c0.195-0.195,0.195-0.513,0-0.707L15.707,15z"/>
</svg>
