
<svg class="emon_bolt"  xmlns="http://www.w3.org/2000/svg" width="66px" height="41px">
<g>
	<path d="M35.639,2.803c0.148-1.684,1.646-2.939,3.326-2.791l0,0c1.683,0.145,2.938,1.645,2.791,3.328l-2.612,29.877
		c-0.147,1.684-1.646,2.938-3.326,2.791l0,0c-1.683-0.146-2.937-1.646-2.791-3.326L35.639,2.803z"/>
	<path d="M26.732,7.77c0.146-1.682,1.644-2.938,3.324-2.789l0,0c1.686,0.146,2.938,1.645,2.791,3.324l-2.615,29.879
		c-0.145,1.686-1.641,2.939-3.322,2.789l0,0c-1.684-0.145-2.938-1.645-2.791-3.324L26.732,7.77z"/>
	<path d="M6.126,23.184c-0.146,1.684-1.644,2.939-3.325,2.789l0,0c-1.684-0.145-2.938-1.643-2.79-3.322l0,0
		c0.146-1.686,1.643-2.938,3.325-2.791l0,0C5.019,20.006,6.272,21.502,6.126,23.184L6.126,23.184z"/>
	<path d="M14.751,21.453c-0.146,1.684-1.646,2.938-3.325,2.787l0,0c-1.683-0.145-2.938-1.645-2.79-3.322l0.294-3.373
		c0.146-1.682,1.646-2.938,3.326-2.789l0,0c1.682,0.145,2.938,1.645,2.789,3.326L14.751,21.453z"/>
	<path d="M23.35,20.023c-0.146,1.684-1.645,2.939-3.325,2.791l0,0c-1.683-0.145-2.938-1.645-2.791-3.326l0.59-6.75
		c0.147-1.682,1.646-2.938,3.326-2.789l0,0c1.683,0.146,2.938,1.646,2.791,3.324L23.35,20.023z"/>
	<path d="M59.748,17.803c0.146-1.684,1.646-2.939,3.322-2.789l0,0c1.686,0.145,2.938,1.643,2.791,3.324l0,0
		c-0.146,1.682-1.646,2.938-3.324,2.789l0,0C60.854,20.98,59.599,19.484,59.748,17.803L59.748,17.803z"/>
	<path d="M51.123,19.533c0.146-1.684,1.646-2.938,3.322-2.787l0,0c1.686,0.145,2.938,1.645,2.791,3.322l-0.295,3.373
		c-0.146,1.684-1.645,2.939-3.324,2.791l0,0c-1.684-0.146-2.938-1.645-2.791-3.326L51.123,19.533z"/>
	<path d="M42.523,20.963c0.146-1.684,1.645-2.939,3.324-2.791l0,0c1.682,0.145,2.936,1.645,2.791,3.326l-0.592,6.75
		c-0.146,1.682-1.646,2.938-3.324,2.789l0,0c-1.684-0.146-2.938-1.646-2.791-3.324L42.523,20.963z"/>
</g>
</svg>
